<svg width="48" height="48" viewBox="0 0 48 48" fill="none" xmlns="http://www.w3.org/2000/svg">
<g clip-path="url(#clip0_72_275)">
<path d="M35.9999 23.9998L17.9999 35.9997V11.9998L35.9999 23.9998ZM23.9999 0.00430298C10.7629 0.00430298 0.00439453 10.7628 0.00439453 23.9998C0.00439453 37.2369 10.7629 47.9953 23.9999 47.9953C37.237 47.9953 47.9955 37.2369 47.9955 23.9998C47.9955 10.7628 37.237 0.00430298 23.9999 0.00430298ZM23.9999 2.99538C35.6157 2.99538 45.0044 12.3841 45.0044 23.9998C45.0044 35.6155 35.6157 45.0042 23.9999 45.0042C12.3842 45.0042 2.99547 35.6155 2.99547 23.9998C2.99547 12.3841 12.3842 2.99538 23.9999 2.99538Z" fill="black"/>
</g>
<defs>
<clipPath id="clip0_72_275">
<rect width="48" height="48" fill="white"/>
</clipPath>
</defs>
</svg>
